<?xml version="1.0" standalone="no"?>
<!DOCTYPE svg PUBLIC "-//W3C//DTD SVG 20010904//EN"
 "http://www.w3.org/TR/2001/REC-SVG-20010904/DTD/svg10.dtd">
<svg version="1.0" xmlns="http://www.w3.org/2000/svg"
 width="922.000000pt" height="922.000000pt" viewBox="0 0 922.000000 922.000000"
 preserveAspectRatio="xMidYMid meet">

<g transform="translate(0.000000,922.000000) scale(0.100000,-0.100000)"
fill="#000000" stroke="none">
<path d="M3292 8765 c-143 -44 -212 -219 -136 -342 64 -103 176 -134 287 -79
30 14 57 26 62 26 14 0 94 -55 95 -65 0 -5 -36 -47 -79 -92 -44 -45 -102 -114
-129 -155 -100 -149 -182 -342 -182 -430 0 -21 -10 -30 -57 -54 -78 -38 -211
-171 -247 -245 -37 -76 -53 -222 -38 -349 9 -72 19 -105 49 -163 47 -91 146
-191 228 -232 54 -27 71 -30 177 -33 92 -3 124 0 149 12 18 9 38 16 44 16 7 0
44 -48 81 -107 38 -60 86 -127 107 -150 l39 -43 -51 -58 c-68 -80 -68 -79
-154 -101 -101 -26 -337 -157 -587 -326 -260 -176 -288 -196 -353 -253 -120
-104 -135 -134 -129 -249 4 -74 69 -148 175 -199 67 -32 126 -48 357 -94 111
-22 130 -31 112 -52 -28 -34 -73 -182 -96 -316 -14 -81 -30 -163 -36 -182 -22
-75 -32 -312 -21 -460 11 -140 47 -352 78 -460 19 -67 111 -271 158 -351 150
-256 374 -498 603 -651 100 -67 279 -158 366 -184 39 -12 61 -25 67 -39 4 -11
19 -49 32 -85 95 -249 216 -541 265 -637 26 -49 59 -83 83 -83 46 0 87 60 170
246 86 196 108 250 204 501 l28 72 66 22 c145 48 274 119 424 232 107 80 192
161 301 286 161 186 206 250 282 401 59 118 79 173 124 345 77 298 87 574 33
908 -20 121 -23 124 -103 109 -32 -6 -44 -13 -41 -23 15 -48 60 -280 60 -309
1 -34 -2 -38 -66 -72 -221 -119 -570 -226 -858 -263 -284 -37 -791 -37 -1110
-1 -357 41 -763 150 -983 264 -46 24 -58 35 -60 58 -6 42 40 363 54 382 10 14
22 11 105 -22 267 -105 888 -228 1052 -209 l49 6 111 -117 c101 -105 115 -117
146 -116 29 0 44 10 95 63 34 35 81 86 106 115 l46 52 114 0 c118 0 501 49
539 69 10 6 72 20 138 31 114 20 250 53 261 65 12 12 -89 3 -177 -15 -147 -30
-354 -45 -421 -31 -73 15 -155 74 -205 147 -36 52 -40 64 -43 133 -2 42 -7 79
-11 84 -4 4 -29 -11 -55 -35 l-48 -42 6 -50 c3 -28 10 -73 16 -101 15 -82 12
-164 -7 -196 -10 -16 -22 -28 -27 -26 -9 3 -35 153 -52 300 l-7 57 -36 -6
c-20 -4 -46 -10 -57 -15 l-21 -7 18 -104 c11 -57 22 -115 25 -129 5 -24 -6
-39 -89 -123 -52 -53 -99 -96 -104 -96 -5 0 -55 46 -111 102 -117 117 -113
104 -87 277 9 56 13 106 10 111 -8 13 -78 0 -96 -19 -11 -11 -20 -51 -28 -130
-13 -121 -22 -151 -48 -151 -14 0 -15 16 -12 133 l4 132 -190 -3 c-228 -5
-447 15 -649 59 -77 17 -142 32 -146 34 -13 8 -26 -12 -43 -66 -10 -31 -24
-62 -32 -69 -18 -15 -18 -11 0 65 8 33 15 80 15 104 l0 44 68 -7 c88 -8 178
-21 277 -40 158 -30 440 -40 778 -27 l315 11 53 -24 c62 -29 85 -27 184 19
109 50 184 142 200 243 6 35 2 52 -20 97 -15 29 -25 60 -22 67 2 7 47 30 98
52 52 21 119 49 150 63 83 36 115 105 64 139 -23 15 -33 14 -175 -20 -82 -20
-185 -52 -229 -71 -44 -19 -86 -35 -94 -35 -9 0 -19 19 -26 53 -24 104 -25
117 -3 140 11 12 31 41 46 65 14 23 31 42 37 42 6 0 45 -27 86 -60 41 -33 85
-63 98 -66 41 -10 86 26 158 127 111 155 281 369 294 369 6 0 32 -26 56 -57
25 -32 57 -69 71 -82 35 -32 33 -55 -10 -126 -20 -33 -63 -114 -96 -180 -58
-116 -119 -224 -144 -255 -7 -8 -25 -40 -41 -70 -37 -72 -72 -129 -160 -262
-59 -89 -73 -118 -78 -162 -19 -147 36 -218 203 -265 70 -19 73 -19 189 -1 65
11 183 26 263 35 452 49 466 52 529 120 22 24 60 84 85 133 42 84 47 90 83 97
83 15 166 84 203 169 27 62 34 143 16 192 -16 48 -31 18 139 289 50 79 103
165 119 192 16 26 54 89 85 138 48 79 55 98 59 153 4 57 1 67 -29 118 -39 63
-140 139 -200 149 -35 7 -219 -7 -339 -24 -36 -6 -132 -15 -215 -22 -178 -13
-255 -35 -346 -95 -74 -49 -96 -74 -159 -187 -47 -82 -82 -123 -98 -113 -6 3
-17 27 -26 52 -16 49 -74 133 -134 196 l-35 37 94 101 c52 56 117 118 144 138
49 36 52 37 165 42 101 5 122 9 174 35 87 44 145 101 197 196 64 117 73 159
73 329 0 167 -8 196 -79 296 -51 71 -110 124 -181 163 l-48 26 -28 105 c-52
197 -157 377 -298 515 -44 42 -80 82 -80 89 1 15 67 56 91 56 11 0 38 -9 61
-21 85 -43 211 -14 267 62 27 37 51 102 51 140 0 54 -39 135 -85 178 -52 48
-74 55 -159 49 -56 -3 -70 -8 -109 -41 -29 -23 -51 -53 -62 -81 -16 -41 -21
-45 -88 -71 -40 -15 -102 -47 -138 -71 -36 -24 -74 -44 -84 -44 -10 0 -51 18
-91 41 -162 89 -346 134 -599 146 -136 6 -341 -9 -447 -33 -98 -22 -258 -84
-345 -132 l-72 -40 -33 30 c-42 37 -126 87 -199 117 -47 20 -59 30 -74 63 -26
60 -79 105 -136 117 -59 13 -53 13 -107 -4z m2637 -100 c53 -27 81 -71 81
-127 0 -44 -4 -54 -34 -84 -26 -26 -42 -34 -71 -34 -133 0 -173 171 -56 239
43 25 45 25 80 6z m-2505 -29 c33 -31 36 -38 36 -90 0 -50 -4 -61 -29 -86 -37
-38 -73 -46 -119 -28 -41 15 -82 68 -82 105 0 41 28 92 62 113 50 30 90 26
132 -14z m1506 -109 c132 -28 370 -124 370 -149 0 -21 -22 -48 -39 -48 -11 0
-49 13 -86 30 -93 42 -213 77 -330 96 -119 19 -415 14 -505 -9 -123 -32 -260
-79 -312 -107 -10 -6 -23 -10 -30 -10 -13 0 -58 39 -58 51 0 34 299 138 465
163 72 10 452 -2 525 -17z m-1305 -56 c85 -40 254 -179 341 -280 84 -97 197
-305 192 -350 -4 -35 -28 -33 -48 4 -69 125 -137 239 -172 287 -59 84 -178
193 -296 271 -56 38 -102 75 -102 83 0 20 18 18 85 -15z m2070 4 c0 -13 -20
-30 -61 -54 -192 -112 -348 -293 -487 -563 -22 -43 -42 -62 -57 -53 -18 11
-11 49 25 124 94 196 306 435 465 523 89 50 115 55 115 23z m-764 -140 c109
-29 206 -63 238 -85 l23 -16 -43 -62 c-47 -69 -59 -73 -119 -42 -117 60 -371
85 -565 56 -60 -9 -155 -32 -210 -51 -54 -19 -102 -31 -105 -27 -4 4 -26 36
-49 71 -35 52 -40 66 -29 76 28 26 280 97 372 105 160 15 379 3 487 -25z
m-1202 -124 l24 -18 -88 -84 c-136 -130 -222 -255 -288 -415 -26 -62 -38 -80
-55 -82 -15 -2 -22 2 -22 14 0 27 46 146 90 234 82 164 249 369 300 369 8 1
26 -8 39 -18z m1885 -27 c69 -56 174 -184 223 -273 34 -60 113 -257 113 -281
0 -5 -13 -10 -30 -10 -26 0 -30 5 -41 42 -13 49 -77 180 -126 258 -20 30 -82
103 -139 161 -57 58 -104 111 -104 117 0 10 27 31 42 32 3 0 31 -21 62 -46z
m-1744 -136 c27 -35 50 -69 50 -77 0 -7 -46 -58 -103 -111 -70 -67 -128 -134
-182 -211 -43 -63 -82 -118 -86 -123 -4 -4 -18 4 -31 19 -12 15 -35 33 -50 41
-16 8 -28 20 -28 27 0 33 115 240 175 314 60 75 175 183 195 183 5 0 32 -28
60 -62z m1669 -23 c75 -76 159 -199 207 -303 43 -92 52 -122 36 -122 -5 0 -26
-17 -47 -37 -35 -35 -38 -37 -49 -19 -107 177 -217 308 -335 398 l-35 26 30
43 c16 23 41 55 56 71 27 29 27 29 58 12 16 -10 52 -41 79 -69z m-730 53 c77
-10 206 -49 224 -67 7 -7 0 -35 -21 -85 -42 -99 -42 -136 1 -182 67 -73 148
-52 215 56 20 33 42 60 48 60 23 0 161 -140 223 -227 73 -102 143 -240 168
-333 15 -55 18 -102 16 -319 l-3 -255 -27 -28 c-15 -15 -30 -28 -34 -28 -4 0
-38 -17 -76 -39 -74 -42 -143 -67 -235 -86 l-60 -12 -36 40 c-48 51 -86 67
-166 67 -78 0 -110 -11 -155 -53 -96 -91 -94 -240 4 -326 92 -81 179 -80 294
1 18 13 43 42 56 63 18 34 28 41 66 48 24 5 81 17 126 28 45 10 86 19 90 19
14 0 -103 -112 -173 -165 -210 -159 -434 -241 -689 -252 -177 -8 -278 12 -487
97 -163 66 -357 232 -470 401 -116 172 -149 281 -155 510 -8 261 33 393 189
614 75 104 201 235 228 235 8 0 29 -27 48 -64 34 -65 72 -96 121 -96 38 0 97
30 114 59 25 42 21 82 -15 167 -18 43 -27 78 -22 83 30 27 224 74 344 84 55 5
151 -1 249 -15z m-1376 -602 c5 -6 6 -189 3 -406 -5 -357 -7 -396 -23 -407
-20 -15 -109 -17 -118 -3 -3 5 -6 193 -6 416 0 322 3 409 13 416 17 11 121 -2
131 -16z m2517 -255 l0 -278 -60 -59 c-33 -32 -66 -61 -72 -65 -10 -6 -13 59
-12 317 1 178 4 330 7 338 6 14 35 21 105 24 l32 2 0 -279z m187 172 c93 -89
116 -137 121 -249 6 -142 -24 -284 -75 -352 -26 -34 -98 -92 -115 -92 -6 0
-10 48 -9 113 0 61 -2 230 -5 375 -4 220 -3 262 9 262 7 0 41 -26 74 -57z
m-2962 -322 c0 -199 -3 -365 -8 -368 -4 -2 -38 26 -75 64 -61 60 -72 78 -97
148 -26 75 -27 88 -22 200 6 159 33 218 131 295 74 57 71 69 71 -339z m2769
-289 c7 -12 -2 -22 -80 -84 -192 -153 -380 -247 -494 -248 -32 0 -33 1 -14 14
11 8 47 22 79 31 78 23 213 86 245 115 14 12 45 36 70 53 25 17 65 47 90 67
67 55 94 68 104 52z m6 -117 c-7 -8 -16 -15 -21 -15 -15 0 -10 22 9 43 15 17
17 17 20 3 2 -9 -2 -23 -8 -31z m-831 -154 c27 -26 31 -36 31 -83 0 -67 -18
-94 -72 -108 -50 -14 -87 -1 -123 42 -28 34 -32 66 -10 108 38 74 119 93 174
41z m1778 -205 c15 -13 25 -28 20 -32 -4 -4 -83 -13 -175 -20 -322 -24 -517
-50 -571 -78 -46 -24 -120 -106 -163 -181 -62 -107 -198 -336 -223 -375 -13
-19 -34 -55 -47 -80 -14 -25 -96 -168 -182 -319 -86 -150 -180 -318 -209 -372
-56 -108 -71 -118 -107 -71 -38 48 -14 127 90 297 22 35 54 93 71 127 18 35
53 95 79 133 25 39 77 126 115 195 37 69 98 175 135 235 37 61 100 166 141
235 138 233 159 246 469 286 282 36 328 41 437 42 84 2 94 0 120 -22z m-2811
-290 c96 -48 209 -86 254 -86 52 0 47 -21 -21 -83 -58 -53 -170 -137 -183
-137 -10 0 -282 421 -291 450 -5 17 10 9 72 -38 44 -34 120 -81 169 -106z
m2878 144 c14 -5 26 -15 26 -22 0 -13 -44 -86 -192 -323 -41 -66 -94 -154
-116 -195 -22 -41 -44 -75 -49 -75 -4 0 -47 20 -96 44 -103 53 -168 62 -245
37 -73 -24 -141 -73 -173 -125 -73 -115 -1 -309 151 -405 35 -22 59 -44 56
-51 -9 -25 -116 -192 -129 -203 -24 -20 -429 -77 -632 -89 -87 -5 -103 -3
-118 11 -23 23 -22 34 11 97 27 52 54 98 242 414 45 77 102 174 125 215 23 41
60 105 81 142 21 37 65 113 98 169 69 119 130 215 160 248 29 33 114 71 159
71 l38 0 -6 -44 c-8 -48 11 -99 41 -110 16 -6 178 14 276 35 62 14 114 58 130
110 11 39 16 43 78 52 46 8 58 7 84 -3z m-1586 -52 c-22 -42 -120 -187 -218
-321 -26 -36 -54 -63 -66 -65 -15 -2 -43 17 -90 60 -38 35 -84 75 -103 89 -40
32 -35 45 21 54 50 9 167 48 205 69 16 8 57 29 93 45 36 16 90 49 120 75 29
25 56 44 58 42 2 -2 -7 -24 -20 -48z m1322 37 c19 -23 5 -43 -37 -50 -21 -4
-70 -13 -110 -22 -77 -16 -93 -13 -93 18 0 24 26 35 106 44 32 4 68 11 79 16
30 12 41 11 55 -6z m-2925 -87 c25 -29 107 -144 181 -255 75 -111 143 -204
151 -207 33 -13 55 -3 142 69 50 41 93 75 95 75 3 0 13 -14 21 -31 9 -16 32
-48 51 -69 l35 -39 -21 -78 c-43 -154 -70 -275 -70 -313 0 -50 -14 -55 -209
-71 -161 -13 -330 -4 -436 25 -67 19 -53 20 255 21 220 0 259 2 286 17 45 25
58 43 40 57 -8 7 -102 28 -208 46 -219 38 -411 87 -544 138 -110 42 -134 56
-134 80 0 25 82 212 140 318 54 100 162 268 172 269 3 0 27 -24 53 -52z m-271
-105 c-25 -41 -50 -59 -199 -147 -236 -140 -307 -186 -454 -298 -119 -89 -181
-147 -181 -168 0 -5 10 -20 23 -34 29 -34 207 -80 367 -95 101 -10 183 -21
285 -37 29 -4 29 -4 -7 16 -21 11 -38 24 -38 29 0 15 43 116 55 129 9 10 11 1
7 -41 l-4 -54 53 -30 c30 -17 69 -34 86 -37 18 -4 37 -15 42 -23 15 -27 151
-43 456 -53 232 -7 311 -6 397 5 59 8 116 18 126 24 10 5 56 42 102 81 79 66
146 100 199 100 27 0 80 -38 101 -72 21 -36 26 -100 10 -142 -12 -34 -77 -104
-111 -122 -47 -24 -100 -18 -146 16 l-42 31 -113 -18 c-92 -15 -175 -18 -448
-18 -348 0 -398 4 -650 50 -74 14 -205 36 -290 50 -369 58 -448 81 -517 148
-27 25 -33 39 -33 72 0 47 13 69 84 144 85 89 373 291 604 425 78 44 255 127
261 121 2 -3 -9 -26 -25 -52z m1234 -108 c28 -20 52 -40 52 -46 0 -17 -69
-108 -91 -120 -11 -5 -48 -13 -84 -16 -75 -7 -91 3 -145 87 -38 59 -38 74 0
90 16 7 35 18 41 26 8 10 35 14 93 14 76 0 84 -2 134 -35z m-1428 -281 c-28
-82 -64 -188 -79 -236 -15 -48 -30 -90 -34 -94 -4 -4 -24 0 -44 9 -21 9 -84
28 -141 42 -126 31 -182 53 -182 70 0 21 94 96 232 187 215 141 293 188 296
179 2 -5 -20 -76 -48 -157z m1389 -63 c11 -32 21 -65 21 -73 0 -9 -19 -23 -45
-33 -46 -17 -64 -32 -169 -143 -32 -34 -63 -62 -68 -62 -16 0 0 63 32 132 26
55 41 106 64 211 6 26 8 27 75 27 l68 0 22 -59z m1746 15 c81 -34 137 -97 150
-168 11 -56 -12 -133 -50 -173 -27 -30 -39 -35 -77 -35 -72 0 -158 49 -212
121 -51 67 -63 111 -47 162 13 38 53 81 91 96 37 15 106 13 145 -3z m-3269
-1916 c10 -10 183 -77 289 -111 111 -36 319 -87 425 -104 58 -9 137 -23 176
-31 282 -58 819 -57 1129 1 72 13 171 31 220 40 145 24 452 120 610 189 32 15
65 25 71 24 13 -3 -56 -190 -106 -288 -35 -69 -109 -189 -157 -252 -57 -75
-103 -96 -350 -164 -300 -83 -435 -98 -853 -99 -443 0 -616 22 -951 124 -178
55 -232 77 -262 109 -35 38 -108 153 -155 247 -42 84 -132 299 -132 315 0 13
33 13 46 0z m1361 -1327 c67 -3 167 0 224 6 56 6 103 10 105 8 6 -6 -33 -124
-73 -217 -23 -52 -57 -135 -77 -185 -48 -119 -98 -215 -112 -215 -6 0 -26 37
-44 83 -18 45 -39 96 -46 112 -19 41 -90 234 -120 323 -31 93 -31 107 -1 97
12 -4 77 -10 144 -12z"/>
<path d="M4015 7563 c-16 -2 -55 -16 -85 -31 -66 -32 -85 -68 -55 -102 23 -25
39 -25 73 -1 67 47 161 51 229 11 44 -26 49 -25 69 5 23 35 7 68 -45 95 -41
20 -130 32 -186 23z"/>
<path d="M5086 7563 c-40 -11 -96 -54 -102 -77 -6 -26 10 -66 28 -66 6 0 35
12 65 26 45 23 62 26 109 21 37 -4 69 -15 93 -31 47 -33 66 -33 87 0 16 24 16
27 -3 52 -36 49 -98 75 -182 78 -42 2 -85 0 -95 -3z"/>
<path d="M4013 7330 c-44 -10 -98 -53 -130 -102 -51 -77 -42 -239 18 -311 42
-51 96 -77 159 -77 127 0 218 92 228 230 6 82 -7 124 -54 179 -58 68 -146 100
-221 81z m98 -90 c6 0 21 -12 34 -26 55 -59 13 -153 -63 -141 -68 11 -103 82
-66 135 18 26 52 43 72 36 8 -2 18 -4 23 -4z"/>
<path d="M5134 7330 c-18 -4 -47 -16 -66 -28 -79 -49 -108 -107 -108 -216 0
-93 34 -165 99 -211 38 -27 51 -30 116 -30 65 0 78 3 117 30 112 79 134 254
48 376 -42 58 -137 94 -206 79z m106 -95 c53 -27 65 -83 29 -129 -16 -21 -29
-26 -64 -26 -38 0 -47 4 -69 33 -33 43 -33 67 2 99 43 40 61 44 102 23z"/>
<path d="M4397 6772 c-43 -47 -2 -123 90 -168 108 -53 228 -34 324 53 45 41
56 76 34 109 -23 36 -59 31 -111 -15 -75 -66 -159 -64 -245 4 -50 39 -69 43
-92 17z"/>
<path d="M5994 5128 c-74 -65 -95 -174 -39 -200 33 -15 74 3 131 58 49 48 56
81 28 140 -22 47 -68 47 -120 2z m66 -58 c14 -26 -2 -58 -35 -66 -49 -12 -59
18 -20 60 29 31 41 33 55 6z"/>
<path d="M5805 5112 c-66 -41 -81 -92 -40 -140 32 -38 42 -40 54 -9 5 12 21
37 35 56 31 41 33 72 8 94 -23 21 -21 21 -57 -1z"/>
<path d="M2964 5388 c-15 -24 72 -68 134 -68 20 0 62 49 62 73 0 12 -188 8
-196 -5z"/>
<path d="M3299 3451 c-20 -16 -22 -23 -14 -47 13 -37 58 -55 81 -32 32 31 14
98 -26 98 -10 0 -28 -9 -41 -19z"/>
<path d="M3407 3352 c-55 -61 -28 -151 37 -126 38 14 47 93 16 124 -25 25 -32
25 -53 2z"/>
<path d="M3566 3258 c-9 -12 -16 -37 -16 -54 0 -28 4 -33 31 -39 24 -5 36 -2
55 16 31 29 30 52 -2 78 -34 27 -49 26 -68 -1z"/>
<path d="M3672 3147 c-24 -28 -24 -64 0 -90 31 -35 56 -37 80 -6 15 20 17 31
9 50 -19 52 -65 75 -89 46z"/>
<path d="M1778 7780 c-283 -48 -501 -240 -604 -531 -22 -60 -27 -98 -31 -201
-6 -146 5 -225 48 -348 36 -102 83 -189 157 -290 97 -132 285 -312 395 -379
42 -26 47 -45 15 -62 -45 -24 -204 -157 -255 -212 -60 -66 -130 -178 -160
-257 -51 -130 -57 -168 -58 -335 0 -149 2 -166 28 -247 45 -135 104 -228 221
-343 137 -136 278 -213 456 -251 76 -16 274 -18 375 -4 191 27 493 167 550
254 15 23 56 168 49 175 -2 2 -38 -28 -80 -67 -96 -87 -192 -143 -331 -192
-108 -38 -220 -66 -229 -57 -3 2 9 67 26 143 18 77 36 157 40 179 5 22 23 96
40 165 18 69 34 135 37 148 4 15 -6 38 -28 72 -19 27 -37 50 -40 50 -4 0 -10
-24 -13 -52 -4 -29 -13 -80 -21 -113 -8 -33 -26 -112 -40 -175 -15 -63 -35
-142 -45 -175 -10 -33 -26 -102 -36 -154 l-18 -94 -105 7 c-200 12 -403 106
-533 246 -82 88 -169 254 -189 358 -18 95 -7 281 21 362 78 224 190 352 399
459 l117 59 48 -29 c116 -72 337 -132 593 -159 119 -13 152 -7 218 41 75 54
69 57 -122 70 -300 20 -538 91 -774 232 -278 166 -515 417 -593 627 -26 72
-56 228 -56 294 0 77 22 205 49 281 50 142 181 282 324 345 125 56 340 64 497
20 157 -44 406 -185 587 -332 39 -32 75 -58 80 -58 11 0 45 98 38 110 -11 18
-202 157 -295 215 -269 166 -541 240 -752 205z"/>
<path d="M7265 7781 c-61 -11 -196 -45 -250 -65 -65 -23 -236 -107 -295 -145
-30 -20 -67 -42 -82 -51 -48 -26 -228 -162 -228 -172 0 -22 30 -78 43 -78 7 0
40 19 73 43 229 166 253 181 419 258 109 50 120 53 265 84 137 30 178 31 293
5 227 -50 384 -201 459 -440 20 -65 23 -95 23 -230 -1 -152 -2 -157 -38 -263
-48 -137 -91 -209 -207 -346 -90 -105 -324 -278 -517 -383 -86 -46 -155 -107
-184 -160 -8 -15 -5 -18 15 -18 39 0 162 45 215 80 l49 31 109 -58 c90 -48
124 -74 203 -153 82 -81 103 -109 143 -190 57 -113 76 -195 84 -350 6 -130 -3
-191 -44 -284 -72 -164 -187 -288 -340 -368 -133 -70 -206 -89 -353 -95 -136
-5 -160 1 -139 35 11 17 10 40 -5 134 -10 62 -28 158 -41 213 -27 114 -51 243
-61 328 -6 53 -5 57 14 57 12 0 65 -16 119 -36 310 -112 464 -156 604 -170 60
-6 69 -4 88 15 39 39 24 55 -54 63 -97 10 -176 26 -275 56 -89 26 -303 103
-356 127 -55 26 -217 76 -223 69 -3 -3 -6 -60 -6 -127 0 -92 5 -144 22 -212
12 -49 41 -173 64 -275 22 -102 47 -205 54 -229 l13 -44 -60 7 c-33 3 -102 20
-152 37 -104 35 -288 128 -327 166 l-27 25 -46 -21 c-25 -11 -46 -25 -46 -31
0 -6 21 -33 46 -60 87 -93 331 -197 553 -235 95 -17 268 -19 353 -6 160 27
381 137 490 246 151 150 258 394 258 588 0 86 -32 256 -65 342 -14 39 -45 102
-68 140 -55 94 -221 257 -316 310 -39 22 -71 45 -71 51 0 6 21 25 48 42 139
92 287 230 388 365 83 111 99 138 145 254 96 241 92 509 -11 713 -95 190 -221
305 -411 376 -81 30 -109 36 -199 39 -58 2 -127 0 -155 -4z"/>
<path d="M1892 7478 c-7 -7 -12 -21 -12 -33 0 -28 19 -45 51 -45 102 0 453
-175 511 -254 37 -50 92 -159 148 -291 74 -176 133 -290 198 -388 14 -20 23
-39 20 -42 -6 -6 -316 41 -392 60 -32 7 -63 18 -69 24 -20 20 14 273 65 483
11 48 18 94 15 102 -19 48 -90 -25 -107 -111 -7 -32 -20 -96 -30 -143 -11 -47
-24 -134 -31 -195 -11 -103 -20 -130 -44 -121 -5 2 -41 9 -80 15 -244 43 -414
97 -603 191 -57 28 -110 49 -118 46 -26 -10 -17 -60 16 -85 101 -74 400 -185
585 -216 55 -9 165 -30 245 -46 143 -28 263 -50 490 -90 163 -29 330 -79 477
-143 69 -31 134 -56 143 -56 16 0 60 39 60 53 0 17 -254 121 -425 175 -54 16
-64 24 -97 73 -87 127 -162 278 -339 674 -62 139 -76 157 -125 167 -21 5 -91
35 -154 67 -112 57 -157 75 -290 119 -75 25 -91 27 -108 10z"/>
<path d="M7305 7483 c-73 -18 -187 -62 -292 -114 -68 -32 -128 -59 -134 -59
-6 0 -26 9 -44 20 -32 20 -34 20 -51 3 -23 -24 -154 -300 -254 -538 -28 -66
-73 -159 -100 -207 -28 -49 -50 -92 -50 -98 0 -5 12 -13 26 -16 59 -15 95 43
270 436 46 102 88 185 95 185 14 0 43 -77 69 -185 29 -121 71 -361 65 -379 -7
-24 3 -33 72 -65 69 -32 54 -33 278 8 173 32 336 88 467 163 101 58 132 87
126 120 -5 28 -32 26 -79 -5 -105 -71 -278 -141 -434 -176 -183 -41 -317 -59
-330 -44 -7 7 -22 83 -33 168 -29 207 -76 353 -138 436 -13 17 -24 36 -24 42
0 6 25 36 55 65 50 50 59 55 112 61 57 6 149 32 168 46 12 9 148 55 193 65 35
7 56 34 46 59 -6 16 -37 19 -79 9z"/>
<path d="M7492 7478 c-27 -27 -14 -56 36 -81 26 -13 61 -33 79 -43 31 -18 32
-18 52 0 12 11 21 25 21 32 0 18 -55 56 -117 82 -61 26 -56 25 -71 10z"/>
<path d="M1651 7452 c-29 -24 -33 -33 -27 -55 7 -30 26 -34 73 -17 38 15 50
34 45 70 -4 25 -9 30 -31 30 -15 0 -42 -13 -60 -28z"/>
<path d="M1470 7299 c-42 -43 -38 -75 14 -102 l39 -21 24 28 c31 36 31 89 1
110 -32 22 -42 20 -78 -15z"/>
<path d="M7732 7284 c-36 -25 -46 -52 -28 -79 21 -32 52 -40 81 -21 28 19 34
69 11 99 -16 21 -35 22 -64 1z"/>
<path d="M3368 6453 c-16 -2 -28 -8 -28 -12 0 -11 140 -224 153 -232 14 -10
38 -1 71 26 38 30 32 50 -39 148 -61 83 -63 84 -157 70z"/>
<path d="M5756 6381 c-31 -39 -60 -73 -66 -76 -6 -3 -17 -19 -25 -35 -14 -26
-13 -34 3 -77 11 -26 22 -57 26 -68 7 -19 9 -18 32 10 13 17 31 51 39 76 9 26
46 85 86 133 38 48 67 92 64 97 -4 5 -28 9 -55 9 -49 0 -50 -1 -104 -69z"/>
<path d="M7285 5681 c-38 -10 -115 -36 -170 -56 -55 -20 -131 -48 -170 -62
-69 -25 -105 -47 -105 -65 0 -13 69 -1 150 27 37 13 138 39 224 59 138 32 166
36 232 30 75 -7 76 -7 72 17 -8 56 -120 80 -233 50z"/>
<path d="M1810 5674 c-45 -20 -70 -43 -70 -66 0 -22 23 -23 80 -3 66 23 103
18 218 -29 98 -40 270 -91 349 -103 29 -5 34 -2 43 23 7 17 7 31 1 37 -5 5
-85 29 -178 52 -92 24 -204 55 -248 68 -115 35 -154 39 -195 21z"/>
<path d="M2267 5260 c-38 -16 -103 -39 -145 -50 -43 -12 -95 -28 -117 -35 -94
-32 -289 -74 -369 -81 -48 -4 -89 -11 -92 -16 -10 -16 6 -57 25 -63 43 -13
289 26 428 69 43 14 107 32 143 41 36 9 95 30 132 46 36 16 78 29 92 29 27 0
33 19 20 68 -8 30 -33 28 -117 -8z"/>
<path d="M5190 5257 c-32 -16 -57 -64 -41 -80 8 -8 11 -6 11 6 0 9 18 30 40
45 56 38 49 59 -10 29z"/>
<path d="M3233 4452 c-33 -21 -43 -110 -15 -134 44 -38 79 -25 88 33 5 32 2
42 -27 73 -21 22 -39 33 -46 28z"/>
<path d="M6555 3883 c-43 -47 -23 -113 34 -113 26 0 71 45 71 72 0 23 -43 68
-64 68 -8 0 -27 -12 -41 -27z"/>
<path d="M6437 3652 c-23 -26 -21 -39 8 -58 37 -24 75 -6 75 35 0 43 -52 57
-83 23z"/>
<path d="M4060 1274 c-270 -12 -678 -35 -975 -55 -180 -11 -336 -32 -505 -65
-166 -33 -229 -63 -249 -117 -24 -63 44 -122 176 -151 43 -10 112 -26 153 -36
78 -19 151 -29 385 -54 278 -30 378 -38 865 -68 429 -26 1393 -12 1820 27 85
8 200 17 255 20 109 7 469 50 543 66 26 5 74 14 107 19 75 13 146 36 207 66
109 55 103 132 -15 187 -85 41 -340 84 -657 112 -157 13 -305 27 -330 30 -89
10 -1030 35 -1265 33 -132 0 -364 -7 -515 -14z m1250 -112 c599 -21 867 -40
1200 -88 191 -27 255 -45 248 -66 -19 -56 -795 -145 -1482 -169 -367 -13
-1316 -7 -1541 10 -82 6 -220 15 -305 21 -302 19 -627 58 -842 102 -87 17
-108 25 -108 39 0 19 13 23 130 39 47 6 139 20 205 30 200 32 429 49 875 66
234 8 481 19 550 24 160 10 641 6 1070 -8z"/>
<path d="M7104 1065 c-18 -18 -23 -31 -19 -48 9 -29 45 -59 62 -52 8 3 20 5
27 5 14 0 56 37 56 50 0 4 -12 22 -26 39 -32 38 -66 40 -100 6z"/>
<path d="M2017 1062 c-36 -40 -7 -92 51 -92 32 0 62 29 62 61 0 44 -81 66
-113 31z"/>
</g>
</svg>
